<svg width="45.000000" height="45.000000" viewBox="0 0 45 45" fill="none" xmlns="http://www.w3.org/2000/svg" xmlns:xlink="http://www.w3.org/1999/xlink">
	<desc>
			Created with Pixso.
	</desc>
	<defs>
		<clipPath id="clip30_97">
			<rect id="Check" width="45.000000" height="45.000000" fill="white" fill-opacity="0"/>
		</clipPath>
	</defs>
	<g clip-path="url(#clip30_97)">
		<path id="path" d="M40.36 13.65L17.86 36.15C17.73 36.28 17.58 36.38 17.41 36.45C17.24 36.52 17.06 36.56 16.87 36.56C16.68 36.56 16.5 36.52 16.33 36.45C16.16 36.38 16.01 36.28 15.88 36.15L6.03 26.3C5.9 26.17 5.8 26.02 5.73 25.85C5.66 25.67 5.62 25.49 5.62 25.31C5.62 25.12 5.66 24.94 5.73 24.77C5.8 24.6 5.9 24.45 6.03 24.31C6.16 24.18 6.32 24.08 6.49 24.01C6.66 23.94 6.84 23.9 7.03 23.9C7.21 23.9 7.39 23.94 7.56 24.01C7.74 24.08 7.89 24.18 8.02 24.31L16.87 33.16L38.38 11.66C38.51 11.52 38.66 11.42 38.83 11.35C39 11.28 39.18 11.25 39.37 11.25C39.56 11.25 39.74 11.28 39.91 11.35C40.08 11.42 40.23 11.53 40.36 11.66C40.5 11.79 40.6 11.94 40.67 12.11C40.74 12.29 40.78 12.47 40.78 12.65C40.78 12.84 40.74 13.02 40.67 13.19C40.6 13.36 40.5 13.51 40.36 13.65Z" fill="#BFB49F" fill-opacity="1.000000" fill-rule="nonzero"/>
	</g>
</svg>
