<svg width="30.000000" height="30.000000" viewBox="0 0 30 30" fill="none" xmlns="http://www.w3.org/2000/svg" xmlns:xlink="http://www.w3.org/1999/xlink">
	<desc>
			Created with Pixso.
	</desc>
	<defs>
		<clipPath id="clip69_38">
			<rect id="Check" width="30.000000" height="30.000000" fill="white" fill-opacity="0"/>
		</clipPath>
	</defs>
	<g clip-path="url(#clip69_38)">
		<path id="path" d="M26.91 9.1L11.91 24.1C11.82 24.18 11.72 24.25 11.6 24.3C11.49 24.35 11.37 24.37 11.25 24.37C11.12 24.37 11 24.35 10.89 24.3C10.77 24.25 10.67 24.18 10.58 24.1L4.02 17.53C3.93 17.45 3.86 17.34 3.82 17.23C3.77 17.11 3.75 16.99 3.75 16.87C3.75 16.75 3.77 16.63 3.82 16.51C3.86 16.4 3.93 16.29 4.02 16.21C4.11 16.12 4.21 16.05 4.32 16C4.44 15.96 4.56 15.93 4.68 15.93C4.81 15.93 4.93 15.96 5.04 16C5.16 16.05 5.26 16.12 5.35 16.21L11.25 22.11L25.58 7.77C25.67 7.68 25.77 7.61 25.89 7.57C26 7.52 26.12 7.5 26.24 7.5C26.37 7.5 26.49 7.52 26.6 7.57C26.72 7.61 26.82 7.68 26.91 7.77C27 7.86 27.06 7.96 27.11 8.07C27.16 8.19 27.18 8.31 27.18 8.43C27.18 8.56 27.16 8.68 27.11 8.79C27.06 8.91 27 9.01 26.91 9.1Z" fill="#401D09" fill-opacity="1.000000" fill-rule="nonzero"/>
	</g>
</svg>
