<svg width="23.250004" height="23.250000" viewBox="0 0 23.25 23.25" fill="currentColor" xmlns="http://www.w3.org/2000/svg" xmlns:xlink="http://www.w3.org/1999/xlink">
	<desc>
			Created with Pixso.
	</desc>
	<defs/>
	<path id="path" d="M23.25 11.62C23.25 11.75 23.22 11.87 23.17 11.99C23.12 12.11 23.05 12.21 22.96 12.31C22.87 12.4 22.77 12.47 22.65 12.52C22.53 12.56 22.4 12.59 22.28 12.59L12.59 12.59L12.59 22.28C12.59 22.4 12.56 22.53 12.52 22.65C12.47 22.77 12.4 22.87 12.31 22.96C12.21 23.05 12.11 23.12 11.99 23.17C11.87 23.22 11.75 23.25 11.62 23.25C11.49 23.25 11.37 23.22 11.25 23.17C11.13 23.12 11.03 23.05 10.94 22.96C10.84 22.87 10.77 22.77 10.73 22.65C10.68 22.53 10.65 22.4 10.65 22.28L10.65 12.59L0.96 12.59C0.84 12.59 0.71 12.56 0.59 12.52C0.47 12.47 0.37 12.4 0.28 12.31C0.19 12.21 0.12 12.11 0.07 11.99C0.02 11.87 0 11.75 0 11.62C0 11.49 0.02 11.37 0.07 11.25C0.12 11.13 0.19 11.03 0.28 10.93C0.37 10.84 0.47 10.77 0.59 10.73C0.71 10.68 0.84 10.65 0.96 10.65L10.65 10.65L10.65 0.96C10.65 0.84 10.68 0.71 10.73 0.59C10.77 0.47 10.84 0.37 10.94 0.28C11.03 0.19 11.13 0.12 11.25 0.07C11.37 0.02 11.49 0 11.62 0C11.75 0 11.87 0.02 11.99 0.07C12.11 0.12 12.21 0.19 12.31 0.28C12.4 0.37 12.47 0.47 12.52 0.59C12.56 0.71 12.59 0.84 12.59 0.96L12.59 10.65L22.28 10.65C22.4 10.65 22.53 10.68 22.65 10.73C22.77 10.77 22.87 10.84 22.96 10.93C23.05 11.03 23.12 11.13 23.17 11.25C23.22 11.37 23.25 11.49 23.25 11.62Z" fill="#000000" fill-opacity="1.000000" fill-rule="nonzero"/>
</svg>
