<svg width="24.000000" height="24.000000" viewBox="0 0 24 24" fill="none" xmlns="http://www.w3.org/2000/svg" xmlns:xlink="http://www.w3.org/1999/xlink">
	<desc>
			Created with Pixso.
	</desc>
	<defs>
		<clipPath id="clip52_7">
			<rect id="X" width="24.000000" height="24.000000" fill="white" fill-opacity="0"/>
		</clipPath>
	</defs>
	<g clip-path="url(#clip52_7)">
		<path id="path" d="M19.28 18.21C19.35 18.28 19.4 18.37 19.44 18.46C19.48 18.55 19.5 18.65 19.5 18.75C19.5 18.84 19.48 18.94 19.44 19.03C19.4 19.12 19.35 19.21 19.28 19.28C19.21 19.35 19.12 19.4 19.03 19.44C18.94 19.48 18.84 19.5 18.75 19.5C18.65 19.5 18.55 19.48 18.46 19.44C18.37 19.4 18.28 19.35 18.21 19.28L12 13.06L5.78 19.28C5.71 19.35 5.62 19.4 5.53 19.44C5.44 19.48 5.34 19.5 5.24 19.5C5.15 19.5 5.05 19.48 4.96 19.44C4.87 19.4 4.78 19.35 4.71 19.28C4.64 19.21 4.59 19.12 4.55 19.03C4.51 18.94 4.49 18.84 4.49 18.75C4.49 18.65 4.51 18.55 4.55 18.46C4.59 18.37 4.64 18.28 4.71 18.21L10.93 12L4.71 5.78C4.64 5.71 4.59 5.62 4.55 5.53C4.51 5.44 4.49 5.34 4.49 5.25C4.49 5.15 4.51 5.05 4.55 4.96C4.59 4.87 4.64 4.78 4.71 4.71C4.78 4.64 4.87 4.59 4.96 4.55C5.05 4.51 5.15 4.49 5.24 4.49C5.34 4.49 5.44 4.51 5.53 4.55C5.62 4.59 5.71 4.64 5.78 4.71L12 10.93L18.21 4.71C18.28 4.64 18.37 4.59 18.46 4.55C18.55 4.51 18.65 4.49 18.75 4.49C18.84 4.49 18.94 4.51 19.03 4.55C19.12 4.59 19.21 4.64 19.28 4.71C19.35 4.78 19.4 4.87 19.44 4.96C19.48 5.05 19.5 5.15 19.5 5.25C19.5 5.34 19.48 5.44 19.44 5.53C19.4 5.62 19.35 5.71 19.28 5.78L13.06 12L19.28 18.21Z" fill="#000000" fill-opacity="0.800000" fill-rule="nonzero"/>
	</g>
</svg>
